<?xml version="1.0" encoding="UTF-8" standalone="no"?>
<!DOCTYPE svg PUBLIC "-//W3C//DTD SVG 1.1//EN" "http://www.w3.org/Graphics/SVG/1.1/DTD/svg11.dtd">
<svg width="100%" height="100%" viewBox="0 0 300 300" version="1.1" xmlns="http://www.w3.org/2000/svg" xmlns:xlink="http://www.w3.org/1999/xlink" xml:space="preserve" xmlns:serif="http://www.serif.com/" style="fill-rule:evenodd;clip-rule:evenodd;stroke-linejoin:round;stroke-miterlimit:2;">
    <circle cx="150" cy="150" r="150" style="fill:rgb(117,115,157);"/>
    <path d="M150,0C232.787,0 300,67.213 300,150C300,232.787 232.787,300 150,300C67.213,300 0,232.787 0,150C0,67.213 67.213,0 150,0ZM150,15C224.509,15 285,75.491 285,150C285,224.509 224.509,285 150,285C75.491,285 15,224.509 15,150C15,75.491 75.491,15 150,15Z" style="fill:url(#_Linear1);"/>
    <g transform="matrix(0.360871,0,0,0.360871,69.165,57.6171)">
        <path d="M436,192L312,192C298.7,192 288,181.3 288,168L288,44C288,37.4 293.4,32 300,32L340,32C346.6,32 352,37.4 352,44L352,128L436,128C442.6,128 448,133.4 448,140L448,180C448,186.6 442.6,192 436,192ZM160,168L160,44C160,37.4 154.6,32 148,32L108,32C101.4,32 96,37.4 96,44L96,128L12,128C5.4,128 0,133.4 0,140L0,180C0,186.6 5.4,192 12,192L136,192C149.3,192 160,181.3 160,168ZM160,468L160,344C160,330.7 149.3,320 136,320L12,320C5.4,320 0,325.4 0,332L0,372C0,378.6 5.4,384 12,384L96,384L96,468C96,474.6 101.4,480 108,480L148,480C154.6,480 160,474.6 160,468ZM352,468L352,384L436,384C442.6,384 448,378.6 448,372L448,332C448,325.4 442.6,320 436,320L312,320C298.7,320 288,330.7 288,344L288,468C288,474.6 293.4,480 300,480L340,480C346.6,480 352,474.6 352,468Z" style="fill-rule:nonzero;"/>
    </g>
    <defs>
        <linearGradient id="_Linear1" x1="0" y1="0" x2="1" y2="0" gradientUnits="userSpaceOnUse" gradientTransform="matrix(1.83697e-14,300,-300,1.83697e-14,150,0)"><stop offset="0" style="stop-color:white;stop-opacity:1"/><stop offset="1" style="stop-color:rgb(190,190,190);stop-opacity:1"/></linearGradient>
    </defs>
</svg>