<?xml version="1.0" encoding="UTF-8" standalone="no"?>
<!DOCTYPE svg PUBLIC "-//W3C//DTD SVG 1.1//EN" "http://www.w3.org/Graphics/SVG/1.1/DTD/svg11.dtd">
<svg width="100%" height="100%" viewBox="0 0 300 300" version="1.1" xmlns="http://www.w3.org/2000/svg" xmlns:xlink="http://www.w3.org/1999/xlink" xml:space="preserve" xmlns:serif="http://www.serif.com/" style="fill-rule:evenodd;clip-rule:evenodd;stroke-linejoin:round;stroke-miterlimit:2;">
    <g transform="matrix(0.9,0,0,0.9,15.0004,14.9996)">
        <circle cx="150" cy="150" r="150" style="fill:rgb(117,115,157);"/>
    </g>
    <g transform="matrix(0.114844,7.18747e-34,7.18747e-34,-0.114844,69.165,230.85)">
        <path d="M1408,800L1408,608C1408,581.333 1398.67,558.667 1380,540C1361.33,521.333 1338.67,512 1312,512L96,512C69.333,512 46.667,521.333 28,540C9.333,558.667 0,581.333 0,608L0,800C0,826.667 9.333,849.333 28,868C46.667,886.667 69.333,896 96,896L1312,896C1338.67,896 1361.33,886.667 1380,868C1398.67,849.333 1408,826.667 1408,800Z" style="fill-rule:nonzero;"/>
    </g>
</svg>
